<?xml version="1.0" standalone="no"?>
<!DOCTYPE svg PUBLIC "-//W3C//DTD SVG 20010904//EN"
 "http://www.w3.org/TR/2001/REC-SVG-20010904/DTD/svg10.dtd">
<svg version="1.0" xmlns="http://www.w3.org/2000/svg"
 width="500.000000pt" height="500.000000pt" viewBox="0 0 500.000000 500.000000"
 preserveAspectRatio="xMidYMid meet">
<metadata>
Created by potrace 1.16, written by Peter Selinger 2001-2019
</metadata>
<g transform="translate(0.000000,500.000000) scale(0.100000,-0.100000)"
fill="#000000" stroke="none">
<path d="M3715 3180 c-4 -6 -6 -36 -5 -68 2 -87 3 -86 -26 -63 -36 29 -114 29
-161 0 -76 -47 -101 -175 -50 -261 43 -74 135 -100 204 -58 32 19 32 19 38 0
5 -16 16 -20 56 -20 l49 0 0 240 0 240 -49 0 c-28 0 -53 -5 -56 -10z m-31
-221 c21 -17 26 -29 26 -65 0 -82 -69 -120 -127 -70 -22 19 -28 32 -28 64 0
78 71 117 129 71z"/>
<path d="M1910 2935 l0 -225 113 0 c61 0 129 5 151 11 55 15 86 52 86 103 0
48 -19 80 -64 107 -17 10 -26 19 -19 19 6 0 25 12 42 26 26 21 31 33 31 68 0
90 -48 116 -220 116 l-120 0 0 -225z"/>
<path d="M2330 2890 l0 -180 55 0 55 0 0 108 c0 121 8 137 65 144 29 3 30 5
33 56 3 47 1 52 -18 52 -12 0 -35 -13 -51 -29 l-29 -29 0 29 c0 29 -1 29 -55
29 l-55 0 0 -180z"/>
<path d="M2650 3048 c-62 -42 -75 -71 -75 -158 0 -64 4 -84 21 -107 55 -75
140 -94 208 -48 l36 24 0 -24 c0 -23 3 -25 50 -25 l50 0 0 180 0 180 -50 0
c-44 0 -50 -3 -50 -21 l0 -21 -34 21 c-46 29 -113 28 -156 -1z m161 -94 c35
-37 33 -98 -4 -130 -34 -29 -66 -30 -101 -3 -22 17 -26 28 -26 69 0 41 4 52
26 69 36 28 75 27 105 -5z"/>
<path d="M3030 2890 l0 -180 55 0 55 0 0 115 c0 102 2 117 20 135 11 11 33 20
50 20 17 0 39 -9 50 -20 18 -18 20 -33 20 -135 l0 -115 56 0 56 0 -4 133 c-3
115 -6 137 -25 168 -26 42 -59 59 -114 59 -43 0 -94 -21 -102 -42 -3 -7 -6 -1
-6 15 -1 26 -3 27 -56 27 l-55 0 0 -180z"/>
<path d="M1440 2945 l65 -65 -150 -151 -150 -150 -135 141 -135 141 -215 -216
-215 -215 68 -67 67 -68 145 145 145 145 140 -140 140 -140 218 218 217 217
68 -67 67 -68 0 203 0 202 -202 0 -202 0 64 -65z"/>
<path d="M2620 2510 l0 -80 -32 20 c-76 46 -173 15 -215 -70 -62 -122 13 -270
138 -270 36 0 55 6 78 26 l31 26 0 -26 c0 -25 2 -26 55 -26 l55 0 0 240 0 240
-55 0 -55 0 0 -80z m-30 -150 c39 -39 38 -102 -2 -140 -51 -47 -128 -6 -128
70 0 75 81 119 130 70z"/>
<path d="M2810 2350 l0 -240 55 0 55 0 0 115 c0 102 2 117 20 135 11 11 33 20
50 20 17 0 39 -9 50 -20 18 -18 20 -33 20 -135 l0 -115 55 0 55 0 0 123 c-1
182 -34 237 -144 237 -33 0 -52 -6 -75 -26 l-31 -26 0 86 0 86 -55 0 -55 0 0
-240z"/>
<path d="M1690 2553 c0 -5 34 -106 76 -225 l77 -218 67 0 68 0 15 43 c8 23 42
120 76 215 34 96 61 178 61 183 0 5 -24 9 -53 9 l-53 0 -54 -165 c-30 -91 -57
-165 -60 -165 -3 0 -30 74 -60 165 l-53 165 -54 0 c-29 0 -53 -3 -53 -7z"/>
<path d="M2180 2290 l0 -180 55 0 55 0 0 180 0 180 -55 0 -55 0 0 -180z"/>
<path d="M3210 2467 c0 -1 30 -76 66 -167 36 -91 66 -172 66 -180 1 -8 -15
-52 -34 -97 l-36 -83 56 0 57 0 110 256 c61 141 112 260 113 265 2 5 -21 9
-51 9 l-55 0 -28 -72 c-15 -40 -35 -93 -45 -118 l-17 -45 -11 28 c-6 16 -11
30 -11 32 0 2 -14 42 -31 89 l-31 86 -59 0 c-32 0 -59 -1 -59 -3z"/>
<path d="M3710 2448 c-62 -42 -75 -71 -75 -158 0 -64 4 -84 21 -107 55 -75
140 -94 208 -48 l36 24 0 -24 c0 -23 3 -25 50 -25 l50 0 0 180 0 180 -50 0
c-43 0 -50 -3 -50 -20 0 -11 -3 -20 -6 -20 -3 0 -17 9 -31 20 -36 28 -110 27
-153 -2z m161 -94 c49 -52 16 -154 -51 -154 -15 0 -39 9 -54 21 -22 17 -26 28
-26 69 0 41 4 52 26 69 36 28 75 27 105 -5z"/>
<path d="M867 2429 c-51 -30 -58 -116 -11 -160 60 -56 164 -9 164 74 0 54 -43
97 -97 97 -21 0 -46 -5 -56 -11z"/>
</g>
</svg>
